<?xml version="1.0" encoding="UTF-8" standalone="no"?>
<!DOCTYPE svg PUBLIC "-//W3C//DTD SVG 1.1//EN" "http://www.w3.org/Graphics/SVG/1.1/DTD/svg11.dtd">
<svg xmlns="http://www.w3.org/2000/svg" version="1.1"  width="400" height="300" viewBox="0.00 0.00 259.00 194.00">
<g stroke-width="55.00" fill='none' stroke-linecap="butt">
<path stroke="#b69edc" vector-effect="non-scaling-stroke" d="
  M 89.27 88.44
  Q 84.96 115.78 106.23 131.06
  Q 117.11 138.88 131.71 138.49"
/>
<path stroke="#f2f0f4" vector-effect="non-scaling-stroke" d="
  M 131.71 138.49
  Q 132.80 138.32 133.65 138.55
  Q 134.35 138.74 133.94 139.34
  Q 133.85 139.46 133.77 139.60
  Q 133.41 140.27 134.15 140.44
  Q 136.49 140.97 140.22 140.17
  Q 153.55 137.30 161.97 128.48
  Q 176.53 113.25 173.73 92.01
  Q 173.00 86.45 169.66 79.90
  Q 168.92 78.44 167.68 77.49
  Q 166.42 76.53 165.03 75.67"
/>
<path stroke="#bfa7e6" vector-effect="non-scaling-stroke" d="
  M 165.03 75.67
  C 153.63 57.05 129.31 50.59 110.51 60.70
  C 99.45 66.65 92.16 76.29 89.27 88.44"
/>
<path stroke="#b197db" vector-effect="non-scaling-stroke" d="
  M 165.03 75.67
  Q 169.40 83.27 170.55 91.53"
/>
<path stroke="#7546c3" vector-effect="non-scaling-stroke" d="
  M 170.55 91.53
  C 169.47 90.97 168.99 90.82 167.76 90.89
  Q 167.68 90.89 167.75 90.86
  Q 167.90 90.79 168.05 90.71
  A 0.33 0.32 32.7 0 0 167.91 90.09
  L 162.32 89.94
  Q 161.93 89.92 161.74 89.58
  Q 161.56 89.25 161.25 89.17
  Q 159.11 88.56 155.84 88.35"
/>
<path stroke="#bfa7e6" vector-effect="non-scaling-stroke" d="
  M 155.84 88.35
  C 155.77 80.51 145.12 80.11 144.64 88.60"
/>
<path stroke="#7546c3" vector-effect="non-scaling-stroke" d="
  M 144.64 88.60
  Q 140.89 89.28 137.09 89.83
  C 134.68 90.18 131.94 89.82 129.21 90.37
  Q 127.28 90.77 125.81 90.59
  C 123.62 90.32 121.20 89.76 119.09 90.29
  Q 117.46 90.71 115.89 91.26"
/>
<path stroke="#a88ce5" vector-effect="non-scaling-stroke" d="
  M 115.89 91.26
  Q 113.10 88.60 109.00 89.47"
/>
<path stroke="#7546c3" vector-effect="non-scaling-stroke" d="
  M 109.00 89.47
  Q 105.99 91.35 104.46 90.58
  A 1.25 1.20 57.7 0 0 103.98 90.46
  C 101.22 90.33 99.13 90.70 96.40 89.66
  Q 92.97 88.36 89.27 88.44"
/>
<path stroke="#b69edc" vector-effect="non-scaling-stroke" d="
  M 155.84 88.35
  C 154.64 95.05 146.37 95.21 144.64 88.60"
/>
<path stroke="#9f84db" vector-effect="non-scaling-stroke" d="
  M 109.00 89.47
  Q 103.32 94.49 107.94 99.29
  Q 113.44 105.01 122.53 113.84
  C 129.09 120.21 136.63 111.75 130.84 106.15
  Q 123.55 99.11 115.89 91.26"
/>
<path stroke="#a88fd1" vector-effect="non-scaling-stroke" d="
  M 131.71 138.49
  C 155.81 136.06 173.91 116.09 170.55 91.53"
/>
<path stroke="#b69edc" vector-effect="non-scaling-stroke" d="
  M 144.60 99.10
  A 5.58 5.58 0.0 0 0 139.02 93.52
  A 5.58 5.58 0.0 0 0 133.44 99.10
  A 5.58 5.58 0.0 0 0 139.02 104.68
  A 5.58 5.58 0.0 0 0 144.60 99.10"
/>
</g>
<path fill="#ffffff" d="
  M 92.60 156.11
  A 22.30 22.30 0.0 0 1 70.26 133.85
  L 70.14 60.46
  A 22.31 21.49 89.9 0 1 91.59 38.12
  L 167.37 37.98
  A 22.31 21.49 89.9 0 1 188.90 60.26
  L 189.02 133.65
  A 22.30 22.30 0.0 0 1 166.76 155.99
  L 92.60 156.11
  Z
  M 89.27 88.44
  Q 84.96 115.78 106.23 131.06
  Q 117.11 138.88 131.71 138.49
  Q 132.80 138.32 133.65 138.55
  Q 134.35 138.74 133.94 139.34
  Q 133.85 139.46 133.77 139.60
  Q 133.41 140.27 134.15 140.44
  Q 136.49 140.97 140.22 140.17
  Q 153.55 137.30 161.97 128.48
  Q 176.53 113.25 173.73 92.01
  Q 173.00 86.45 169.66 79.90
  Q 168.92 78.44 167.68 77.49
  Q 166.42 76.53 165.03 75.67
  C 153.63 57.05 129.31 50.59 110.51 60.70
  C 99.45 66.65 92.16 76.29 89.27 88.44
  Z"
/>
<path fill="#7e4ecd" d="
  M 165.03 75.67
  Q 169.40 83.27 170.55 91.53
  C 169.47 90.97 168.99 90.82 167.76 90.89
  Q 167.68 90.89 167.75 90.86
  Q 167.90 90.79 168.05 90.71
  A 0.33 0.32 32.7 0 0 167.91 90.09
  L 162.32 89.94
  Q 161.93 89.92 161.74 89.58
  Q 161.56 89.25 161.25 89.17
  Q 159.11 88.56 155.84 88.35
  C 155.77 80.51 145.12 80.11 144.64 88.60
  Q 140.89 89.28 137.09 89.83
  C 134.68 90.18 131.94 89.82 129.21 90.37
  Q 127.28 90.77 125.81 90.59
  C 123.62 90.32 121.20 89.76 119.09 90.29
  Q 117.46 90.71 115.89 91.26
  Q 113.10 88.60 109.00 89.47
  Q 105.99 91.35 104.46 90.58
  A 1.25 1.20 57.7 0 0 103.98 90.46
  C 101.22 90.33 99.13 90.70 96.40 89.66
  Q 92.97 88.36 89.27 88.44
  C 92.16 76.29 99.45 66.65 110.51 60.70
  C 129.31 50.59 153.63 57.05 165.03 75.67
  Z"
/>
<path fill="#e4e0e8" d="
  M 165.03 75.67
  Q 166.42 76.53 167.68 77.49
  Q 168.92 78.44 169.66 79.90
  Q 173.00 86.45 173.73 92.01
  Q 176.53 113.25 161.97 128.48
  Q 153.55 137.30 140.22 140.17
  Q 136.49 140.97 134.15 140.44
  Q 133.41 140.27 133.77 139.60
  Q 133.85 139.46 133.94 139.34
  Q 134.35 138.74 133.65 138.55
  Q 132.80 138.32 131.71 138.49
  C 155.81 136.06 173.91 116.09 170.55 91.53
  Q 169.40 83.27 165.03 75.67
  Z"
/>
<path fill="#ffffff" d="
  M 155.84 88.35
  C 154.64 95.05 146.37 95.21 144.64 88.60
  C 145.12 80.11 155.77 80.51 155.84 88.35
  Z"
/>
<path fill="#6c3db9" d="
  M 170.55 91.53
  C 173.91 116.09 155.81 136.06 131.71 138.49
  Q 117.11 138.88 106.23 131.06
  Q 84.96 115.78 89.27 88.44
  Q 92.97 88.36 96.40 89.66
  C 99.13 90.70 101.22 90.33 103.98 90.46
  A 1.25 1.20 57.7 0 1 104.46 90.58
  Q 105.99 91.35 109.00 89.47
  Q 103.32 94.49 107.94 99.29
  Q 113.44 105.01 122.53 113.84
  C 129.09 120.21 136.63 111.75 130.84 106.15
  Q 123.55 99.11 115.89 91.26
  Q 117.46 90.71 119.09 90.29
  C 121.20 89.76 123.62 90.32 125.81 90.59
  Q 127.28 90.77 129.21 90.37
  C 131.94 89.82 134.68 90.18 137.09 89.83
  Q 140.89 89.28 144.64 88.60
  C 146.37 95.21 154.64 95.05 155.84 88.35
  Q 159.11 88.56 161.25 89.17
  Q 161.56 89.25 161.74 89.58
  Q 161.93 89.92 162.32 89.94
  L 167.91 90.09
  A 0.33 0.32 32.7 0 1 168.05 90.71
  Q 167.90 90.79 167.75 90.86
  Q 167.68 90.89 167.76 90.89
  C 168.99 90.82 169.47 90.97 170.55 91.53
  Z
  M 144.60 99.10
  A 5.58 5.58 0.0 0 0 139.02 93.52
  A 5.58 5.58 0.0 0 0 133.44 99.10
  A 5.58 5.58 0.0 0 0 139.02 104.68
  A 5.58 5.58 0.0 0 0 144.60 99.10
  Z"
/>
<path fill="#d1cafd" d="
  M 115.89 91.26
  Q 123.55 99.11 130.84 106.15
  C 136.63 111.75 129.09 120.21 122.53 113.84
  Q 113.44 105.01 107.94 99.29
  Q 103.32 94.49 109.00 89.47
  Q 113.10 88.60 115.89 91.26
  Z"
/>
<circle fill="#ffffff" cx="139.02" cy="99.10" r="5.58"/>
</svg>
